<svg width="194" height="56" viewBox="0 0 194 56" fill="none" xmlns="http://www.w3.org/2000/svg">
<path d="M35.41 25.95C35.3633 25.67 35.1533 25.53 34.78 25.53C34.4067 25.53 32.7267 29.0067 29.74 35.96C26.7533 42.82 25.0033 46.6934 24.49 47.5801C23.51 48.9801 22.53 49.68 21.55 49.68C20.5233 49.68 19.5667 48.7934 18.68 47.0201C18.12 45.9468 16.5333 42.0734 13.92 35.4001C11.26 28.7734 9.65 25.46 9.09 25.46C8.81 25.46 8.6 25.7167 8.46 26.23C7.43333 29.4967 6.92 36.2167 6.92 46.39C6.92 49.05 6.61667 50.8467 6.01 51.78C5.40333 52.6667 4.33 53.1101 2.79 53.1101C1.20333 53.1101 0.410004 52.3167 0.410004 50.73C0.410004 50.6833 0.666671 49.8433 1.18 48.21C1.46 47.4633 1.67 46.6701 1.81 45.8301C1.95 44.9901 2.06667 44.1033 2.16 43.17C2.39333 39.7167 2.55667 36.6833 2.65 34.07C2.79 31.4567 2.86 29.24 2.86 27.42C2.86 25.6 2.83667 24.06 2.79 22.8C2.74333 21.54 2.67333 20.5367 2.58 19.79L2.37 18.46C2.27667 17.8533 2.20667 17.3633 2.16 16.99C2.11333 16.57 2.09 16.2433 2.09 16.01C2.09 15.59 2.34667 15.17 2.86 14.75C3.37333 14.2833 4.16667 14.05 5.24 14.05C7.57333 14.05 9.55667 15.1467 11.19 17.34C12.31 18.7867 14.3633 22.7067 17.35 29.1C20.2433 35.4 21.9933 38.55 22.6 38.55L23.23 37.57L27.85 28.19C29.3433 25.25 30.5567 22.8467 31.49 20.98C32.4233 19.1133 33.2867 17.6667 34.08 16.64C34.92 15.5667 35.7833 14.8433 36.67 14.47C37.6033 14.0967 38.7467 13.91 40.1 13.91C40.8933 13.91 41.57 14.0967 42.13 14.47C42.69 14.8433 42.97 15.3567 42.97 16.01L42.9 17.06L42.69 18.25C42.6433 18.67 42.5967 19.1367 42.55 19.65C42.55 20.1167 42.55 20.6067 42.55 21.12V27.49C42.55 28.05 42.55 28.75 42.55 29.59C42.5967 30.3833 42.62 31.3167 42.62 32.39V38.9701C42.62 43.4968 42.83 46.4601 43.25 47.8601L43.67 49.05C44.0433 50.17 44.23 50.8701 44.23 51.1501C44.23 52.8301 42.9933 53.67 40.52 53.67C39.0733 53.67 38.0233 53.1101 37.37 51.9901C36.7167 50.8701 36.39 49.6333 36.39 48.28L36.53 42.75C36.53 33.4633 36.1567 27.8633 35.41 25.95ZM106.456 49.89V50.4501C106.456 51.9434 105.99 52.97 105.056 53.53C104.123 54.0433 103.003 54.3 101.696 54.3C101.09 54.3 100.623 54.2767 100.296 54.23C99.9695 54.1367 99.6895 53.9267 99.4562 53.6C99.2228 53.2733 98.9895 52.7601 98.7562 52.0601C98.5695 51.3601 98.3128 50.38 97.9862 49.12C97.6595 47.7667 97.3095 46.6467 96.9362 45.76C96.5628 44.8733 96.0962 44.1733 95.5362 43.66C95.0228 43.1 94.3462 42.7034 93.5062 42.4701C92.7128 42.2368 91.6628 42.12 90.3562 42.12C87.8828 42.12 85.9695 42.2134 84.6162 42.4001C83.2628 42.5868 82.2362 42.9368 81.5362 43.4501C80.8362 43.9168 80.3228 44.5933 79.9962 45.48C79.6695 46.32 79.2962 47.4168 78.8762 48.7701C78.5495 49.7501 78.3162 50.73 78.1762 51.71C78.0828 52.6433 77.8962 53.3201 77.6162 53.7401C77.3828 54.1134 76.7295 54.3 75.6562 54.3C74.5828 54.3 73.7195 53.8568 73.0662 52.9701C72.4595 52.0834 72.1562 51.1033 72.1562 50.03C72.1562 48.91 72.5295 47.8368 73.2762 46.8101C73.6495 46.2968 73.9528 45.8067 74.1862 45.34C74.4662 44.8267 74.6995 44.36 74.8862 43.94C75.0728 43.52 75.5162 42.26 76.2162 40.16C76.9162 38.0133 77.9428 35.0268 79.2962 31.2001C80.6028 27.3734 81.6762 24.2933 82.5162 21.96C83.4028 19.58 84.0795 17.9 84.5462 16.92C85.4328 15.0533 86.2028 13.8633 86.8562 13.35C87.5095 12.8367 88.3262 12.58 89.3062 12.58C90.2862 12.58 91.1728 12.93 91.9662 13.63C92.8062 14.33 93.6928 15.6833 94.6262 17.69C94.6262 17.69 97.7528 26.5101 104.006 44.1501C104.333 45.0834 104.823 46.0867 105.476 47.16C106.13 48.2333 106.456 49.1433 106.456 49.89ZM89.7262 37.85C92.8062 37.85 94.3462 37.57 94.3462 37.01V36.8C94.3462 36.7067 94.2995 36.5201 94.2062 36.2401C94.1595 35.9601 94.0895 35.5633 93.9962 35.05L93.5062 33.3C93.5062 33.2533 93.4595 33.0901 93.3662 32.8101C93.3195 32.7168 93.0395 31.5033 92.5262 29.17C91.9662 26.93 91.2662 24.8067 90.4262 22.8C89.5862 20.84 89.0962 19.86 88.9562 19.86C88.8162 19.86 88.4662 20.5833 87.9062 22.03C84.5462 30.43 82.8662 35.4 82.8662 36.94V37.1501C82.8662 37.6168 83.8928 37.85 85.9462 37.85H89.7262ZM148.887 25.95C148.84 25.67 148.63 25.53 148.257 25.53C147.883 25.53 146.203 29.0067 143.217 35.96C140.23 42.82 138.48 46.6934 137.967 47.5801C136.987 48.9801 136.007 49.68 135.027 49.68C134 49.68 133.043 48.7934 132.157 47.0201C131.597 45.9468 130.01 42.0734 127.397 35.4001C124.737 28.7734 123.127 25.46 122.567 25.46C122.287 25.46 122.077 25.7167 121.937 26.23C120.91 29.4967 120.397 36.2167 120.397 46.39C120.397 49.05 120.093 50.8467 119.487 51.78C118.88 52.6667 117.807 53.1101 116.267 53.1101C114.68 53.1101 113.887 52.3167 113.887 50.73C113.887 50.6833 114.143 49.8433 114.657 48.21C114.937 47.4633 115.147 46.6701 115.287 45.8301C115.427 44.9901 115.543 44.1033 115.637 43.17C115.87 39.7167 116.033 36.6833 116.127 34.07C116.267 31.4567 116.337 29.24 116.337 27.42C116.337 25.6 116.313 24.06 116.267 22.8C116.22 21.54 116.15 20.5367 116.057 19.79L115.847 18.46C115.753 17.8533 115.683 17.3633 115.637 16.99C115.59 16.57 115.567 16.2433 115.567 16.01C115.567 15.59 115.823 15.17 116.337 14.75C116.85 14.2833 117.643 14.05 118.717 14.05C121.05 14.05 123.033 15.1467 124.667 17.34C125.787 18.7867 127.84 22.7067 130.827 29.1C133.72 35.4 135.47 38.55 136.077 38.55L136.707 37.57L141.327 28.19C142.82 25.25 144.033 22.8467 144.967 20.98C145.9 19.1133 146.763 17.6667 147.557 16.64C148.397 15.5667 149.26 14.8433 150.147 14.47C151.08 14.0967 152.223 13.91 153.577 13.91C154.37 13.91 155.047 14.0967 155.607 14.47C156.167 14.8433 156.447 15.3567 156.447 16.01L156.377 17.06L156.167 18.25C156.12 18.67 156.073 19.1367 156.027 19.65C156.027 20.1167 156.027 20.6067 156.027 21.12V27.49C156.027 28.05 156.027 28.75 156.027 29.59C156.073 30.3833 156.097 31.3167 156.097 32.39V38.9701C156.097 43.4968 156.307 46.4601 156.727 47.8601L157.147 49.05C157.52 50.17 157.707 50.8701 157.707 51.1501C157.707 52.8301 156.47 53.67 153.997 53.67C152.55 53.67 151.5 53.1101 150.847 51.9901C150.193 50.8701 149.867 49.6333 149.867 48.28L150.007 42.75C150.007 33.4633 149.633 27.8633 148.887 25.95ZM179.473 55.42C178.54 55.42 177.537 55.35 176.463 55.21C175.39 55.07 174.34 54.9068 173.313 54.7201C172.333 54.4868 171.423 54.2534 170.583 54.0201C169.743 53.7401 169.09 53.46 168.623 53.18C167.737 52.6667 167.037 51.92 166.523 50.94C166.01 49.96 165.753 49.0033 165.753 48.07C165.753 47.1833 165.963 46.5068 166.383 46.0401C166.803 45.5268 167.27 45.2701 167.783 45.2701C168.203 45.2701 169.137 45.8534 170.583 47.0201C171.937 48.1868 173.29 49.0501 174.643 49.6101C176.043 50.1701 177.77 50.4501 179.823 50.4501C181.923 50.4501 183.603 49.9133 184.863 48.84C186.123 47.7667 186.753 46.2268 186.753 44.2201C186.753 43.2401 186.567 42.4001 186.193 41.7001C185.867 41.0001 185.307 40.3468 184.513 39.7401C183.72 39.1334 182.693 38.5033 181.433 37.85C180.22 37.1967 178.703 36.4501 176.883 35.6101C175.437 34.9101 174.083 34.21 172.823 33.51C171.563 32.7633 170.443 31.9233 169.463 30.99C168.53 30.01 167.783 28.89 167.223 27.63C166.71 26.3233 166.453 24.7833 166.453 23.01C166.453 19.8367 167.713 17.27 170.233 15.31C172.753 13.3033 176.417 12.3 181.223 12.3C184.163 12.3 186.613 12.72 188.573 13.56C189.507 13.98 190.277 14.68 190.883 15.66C191.49 16.5933 191.793 17.4567 191.793 18.25C191.793 20.21 191.14 21.19 189.833 21.19C189.507 21.19 188.293 20.49 186.193 19.09C184.047 17.69 181.923 16.99 179.823 16.99C177.723 16.99 176.02 17.48 174.713 18.46C173.407 19.44 172.753 20.8167 172.753 22.59C172.753 23.4767 172.893 24.2467 173.173 24.9C173.5 25.5533 174.013 26.1833 174.713 26.79C175.46 27.3967 176.44 28.0267 177.653 28.68C178.913 29.3333 180.477 30.08 182.343 30.92C183.837 31.5733 185.237 32.2734 186.543 33.0201C187.897 33.7668 189.087 34.6301 190.113 35.6101C191.14 36.5901 191.957 37.7568 192.563 39.1101C193.17 40.4168 193.473 41.98 193.473 43.8C193.473 44.64 193.38 45.4567 193.193 46.25C193.007 46.9967 192.75 47.7434 192.423 48.4901C191.257 50.8701 189.46 52.6201 187.033 53.7401C184.653 54.8601 182.203 55.42 179.683 55.42H179.473Z" fill="black"/>
<path d="M60.0467 54.93H58.2967C57.9701 54.93 57.5034 54.9067 56.8967 54.86C56.3367 54.7667 55.7534 54.6267 55.1467 54.44C54.5867 54.2533 54.0967 53.9967 53.6767 53.67C53.2567 53.3433 53.0467 52.9467 53.0467 52.48C53.0467 51.8733 53.3734 50.9167 54.0267 49.61C54.7734 48.21 55.2401 46.74 55.4267 45.2C55.5201 44.36 55.5901 42.96 55.6367 41C55.7301 39.04 55.7767 36.4733 55.7767 33.3C55.7767 30.1267 55.7534 27.5833 55.7067 25.67C55.6601 23.7567 55.5901 22.45 55.4967 21.75C55.3101 20.35 54.8434 19.1133 54.0967 18.04C53.3967 16.9667 53.0467 16.08 53.0467 15.38C53.0467 14.82 53.2801 14.3767 53.7467 14.05C54.2601 13.7233 54.8434 13.4667 55.4967 13.28C56.1501 13.0933 56.8034 12.9767 57.4567 12.93C58.1567 12.8367 58.6934 12.79 59.0667 12.79H60.2567C61.7034 12.79 62.8234 13.0467 63.6167 13.56C64.3167 14.12 64.6667 14.68 64.6667 15.24V15.66C64.6667 15.94 64.4101 16.64 63.8967 17.76C63.3367 18.74 62.9867 20.0933 62.8467 21.82C62.7534 22.66 62.6601 24.2 62.5667 26.44C62.5201 28.6333 62.4967 31.55 62.4967 35.19C62.4967 38.83 62.4967 41.6533 62.4967 43.66C62.5434 45.6667 62.5901 46.8567 62.6367 47.23C62.7767 48.0233 63.1267 48.9567 63.6867 50.03C64.2467 51.0567 64.5267 51.92 64.5267 52.62C64.5267 53.2733 64.0834 53.8333 63.1967 54.3C62.3101 54.72 61.2601 54.93 60.0467 54.93Z" fill="#FDF24C"/>
<path d="M59 16C59 16 59 -4.68889 59 2.52817" stroke="#FDF24C" stroke-width="3"/>
<path d="M55 15.6758C53.3602 18.833 55.5 -2.49996 55 2.77266" stroke="#FDF24C" stroke-width="3"/>
<path d="M63.0777 15.7454C64.7176 18.9025 62.5777 -2.43038 63.0777 2.84224" stroke="#FDF24C" stroke-width="3"/>
</svg>
